<svg xmlns="http://www.w3.org/2000/svg" width="256" height="256" viewBox="0 0 100 100"><rect width="100" height="100" rx="0" fill="#000000"></rect><path fill="#fff" d="M30.72 85Q26.00 85 22.16 83.16Q18.32 81.32 16.12 77.76Q13.92 74.20 13.92 69.16L13.92 69.16L13.92 51.96L27.44 51.96L27.44 68.36Q27.44 70.20 28.20 71.28Q28.96 72.36 30.56 72.36L30.56 72.36Q32.08 72.36 32.84 71.36Q33.60 70.36 33.60 68.52L33.60 68.52L33.60 15.64L47.44 15.64L47.44 67.16Q47.44 72.52 45.32 76.56Q43.20 80.60 39.40 82.80Q35.60 85 30.72 85L30.72 85ZM68.72 85Q61.20 85 56.68 80.28Q52.16 75.56 52.16 67.32L52.16 67.32L52.16 35.64Q52.16 25.40 56.24 20.20Q60.32 15 69.04 15L69.04 15Q76.64 15 81.28 19.16Q85.92 23.32 85.92 31.16L85.92 31.16L85.92 43L72.24 43L72.24 32.84Q72.24 29.88 71.52 28.76Q70.80 27.64 69.04 27.64L69.04 27.64Q67.20 27.64 66.52 28.92Q65.84 30.20 65.84 32.68L65.84 32.68L65.84 67.16Q65.84 69.88 66.64 71.12Q67.44 72.36 69.04 72.36L69.04 72.36Q72.24 72.36 72.24 67.16L72.24 67.16L72.24 54.76L86.08 54.76L86.08 67.72Q86.08 85 68.72 85L68.72 85Z"></path></svg>