<svg xmlns="http://www.w3.org/2000/svg" width="256" height="256" viewBox="0 0 100 100"><rect width="100" height="100" rx="0" fill="#2570ce"></rect><path fill="#ffffff" d="M13.28 87.04L13.28 37.47L25.38 37.47L25.38 87.04L13.28 87.04ZM19.22 28.18Q15.87 28.18 13.60 25.92Q11.34 23.65 11.34 20.30L11.34 20.30Q11.34 17.28 13.60 15.12Q15.87 12.96 19.22 12.96L19.22 12.96Q22.46 12.96 24.73 15.12Q27.00 17.28 27.00 20.30L27.00 20.30Q27.00 23.65 24.78 25.92Q22.57 28.18 19.22 28.18L19.22 28.18ZM41.58 87.04L41.58 37.47L53.02 37.47L53.13 46.54Q55.18 42.01 59.61 39.09Q64.04 36.18 69.98 36.18L69.98 36.18Q77.65 36.18 81.75 39.36Q85.86 42.55 87.26 48.27Q88.66 54.00 88.66 63.18L88.66 63.18L88.66 87.04L77 87.04L77 63.50Q77 54.10 75.16 49.95Q73.33 45.79 67.60 45.79L67.60 45.79Q64.36 45.79 61.02 47.79Q57.67 49.78 55.45 53.56Q53.24 57.34 53.24 62.42L53.24 62.42L53.24 87.04L41.58 87.04Z"></path></svg>