<?xml version="1.0" encoding="UTF-8"?><svg id="Layer_1" xmlns="http://www.w3.org/2000/svg" width="1920" height="1080" viewBox="0 0 1920 1080"><defs><style>.cls-1,.cls-2,.cls-3,.cls-4,.cls-5,.cls-6,.cls-7,.cls-8,.cls-9{stroke-miterlimit:10;}.cls-1,.cls-2,.cls-3,.cls-4,.cls-7,.cls-8,.cls-9{stroke:#000;}.cls-1,.cls-2,.cls-3,.cls-6,.cls-7{fill:none;}.cls-1,.cls-6,.cls-8{stroke-width:.93px;}.cls-10{fill:#ffffba;}.cls-11{fill:#fffdfd;}.cls-12{fill:#dbdbdb;}.cls-2{stroke-linecap:round;stroke-width:2px;}.cls-3{stroke-width:.81px;}.cls-4{stroke-width:.68px;}.cls-13{fill:#909090;opacity:.64;}.cls-5{stroke:#6b6b6b;stroke-width:5.56px;}.cls-6{stroke:#908b9b;}.cls-7{stroke-width:.89px;}.cls-14{fill:#919191;}.cls-15{fill:#626168;}.cls-9{stroke-width:.72px;}</style></defs><rect class="cls-14" x="1341.13" y="0" width="580" height="1080"/><rect y="0" width="1341.13" height="590"/><rect y="0" width="1341.13" height="590"/><path class="cls-15" d="M-1.98,370.63c75.31-26.09,158.62-1.68,237.97,10.9,106.82,16.92,215.16,16.21,319.41-10.98,33.55-8.75,60.86-14.51,88.84-12.48,39.46,2.87,81.59,11.29,130.64,7.55,38.36-2.92,32.05-3.01,70.4,0,16.27,1.28,36.35-.34,54.36,.44,10.32,.44,43.87-14.16,54.61-13.78,136.69,4.81,280.67,21.26,386.87,70.42v657.3H0"/><path class="cls-15" d="M472.56-5.43c-2.27,96.03-8.21,152.9-4.82,253.1,1.21,35.79,65.34,30.46,100.8,36.31,60.75,10.03,127.28-2.27,188.62-2.53,66.28-.28,132.72-.56,198.57-8.23,62.79-7.31,126.98-21.23,188.35-6.01,6.28,1.56,13.04,3.39,19.03,.93,11.69-4.81,12.08-21.17,10.47-33.84-11.49-90.68-22.98-181.35-34.47-272.03"/><path class="cls-15" d="M388.64,1.72c.71,97.14,2.13,213.49,2.13,291.41,0,56.74-51.26,22.98-119.32,14.92-105.39-12.48-232.47-17.39-289.58,14.18-7.46,4.13-1.65-135-27.45-324.63-.65-4.81-1.19-10.2,1.46-14.12,2.71-4.01,7.71-4.96,12.2-5.59C113.08-42.33,259.12-53.03,388.64,1.72Z"/><rect class="cls-12" x="774.88" y="332.27" width="70.4" height="33.35"/><ellipse class="cls-12" cx="801.26" cy="167.81" rx="186.2" ry="189.91"/><path class="cls-5" d="M970.79,196.78c-2.85,5.19-4.1,8.79-8.93,12.22-3.3,2.35-4.22,4.22-6.95,7.23-1.81,1.98-2.9,4.61-3.71,7.47-.78,2.78-1.29,5.76-1.92,8.52-.28,1.25-.58,2.45-.94,3.58-2.6,8.03-4.58,15.38-7.74,21.91l-8.34,11.85c-1.33,1.32-2.82,2.58-4.47,3.8-2.55,1.87-4.8,3.92-6.91,6.04l-6.14,6.71c-5.85,6.64-11.44,13.07-20.4,16.61-.75,.3-1.53,.59-2.33,.91-4.34,1.63-9.54,3.39-15.22,5.2-2.75,.88-5.61,1.77-8.55,2.66-3.55,1.08-7.2,2.17-10.87,3.23-3.36,.98-6.73,1.95-10.07,2.88l-19.65,5.41c-2.74,.69-5.47,1.05-8.19,1.16l-16.86-1.78c-6.01-1.24-12.04-2.86-18.19-3.95-4.05-.72-8.15-1.2-12.32-1.2h-.57c-3.03,.04-6.58-.33-10.37-.93l-16.42-3.21c-5.39-1.14-10.51-2.2-14.64-2.72-3.15-.4-5.88-1.02-8.3-1.84-6.49-2.21-10.64-5.85-14.03-10.26-4.4-5.73-7.5-12.78-12.82-19.75-2.24-2.95-4.88-5.88-8.19-8.7-.92-.79-1.89-1.57-2.92-2.33-.37-.27-.74-.54-1.12-.81-1.84-1.31-5.69-4.6-9.9-8.34-6.36-5.66-13.59-12.34-16.06-14.69-5.29-5.04-13.16-16.08-13.16-16.08,3.36,.12,5.24-.44,6.77-1.25,1.7-.91,2.97-2.14,5.35-3.11,1.32-.54,3-.99,5.29-1.26,5.28-.3,9.94-1.34,14.51-2.03,4.19-.63,8.3-.96,12.75-.14,.75,.14,1.52,.31,2.29,.52,.81,.22,1.61,.45,2.41,.69,6.23,1.88,12.38,4.36,18.66,5.76,3.26,.73,6.57,1.17,9.94,1.07,3.24-.09,6.4-.68,9.53-1.5,4.31-1.12,8.54-2.7,12.78-4.06,1.46-.47,2.92-.89,4.34-1.25,12.97-3.33,24.68-2.64,36.21-1.87,9.34,.63,18.56,1.32,28.26-.03,2.51-.34,5.05-.82,7.63-1.48,1.35-.34,2.72-.73,4.1-1.18,6.04-1.94,12.55-4.73,19.29-7.83,2.96-1.35,5.97-2.77,9-4.19,4.86-2.28,9.79-4.58,14.69-6.68,4.86-2.09,9.69-4,14.41-5.52,3.55-1.15,7.02-2.08,10.4-2.71,2.34-.44,4.7-.72,7.04-.88,2.93-.19,5.85-.19,8.72-.06,7.11,.33,13.91,1.52,19.92,2.63,2.57,.47,4.98,.94,7.22,1.32,6.6,1.13,13.22-1.14,19.88-3.18,3.11-.94,6.23-1.84,9.37-2.32,3.62-.54,7.24-.52,10.88,.65,1.44,.45,2.96,1.05,3.72,2.34,1.03,1.77-7.22,4.94-8.2,6.73Z"/><path class="cls-1" d="M759.41,151.85c-.03,8.95-3.21,17.87-8.87,24.81"/><path class="cls-1" d="M829.34,140.5c2.79,7,8.58,12.75,15.59,15.49"/><path class="cls-8" d="M746.19-34.04c-21.03,5.54-40.94,15.27-58.22,28.46-12.88,9.82-24.23,21.47-35.53,33.07-17.04,17.49-34.54,35.7-43.01,58.6-5.13,13.88-6.67,28.79-8.16,43.51,11.37-17.7,34.84-22.15,55.67-25,.78-4.31,1.57-8.63,2.35-12.94,2.1,2.24,3.76,4.88,4.88,7.73,5.89,.21,12.03,.37,17.37-2.12,5.34-2.5,9.51-8.54,7.84-14.2,4.76,5.71,12.74,7.91,20.16,7.45,7.42-.46,14.48-3.22,21.4-5.95,.54-3.27,1.08-6.54,1.62-9.8,2.27,7.75,12.86,8.71,20.79,7.21,4.26-.81,8.69-1.99,11.8-5.02,3.11-3.03,4.29-8.43,1.47-11.72,7.18,3.64,12.24,11.15,12.92,19.17,5.64-4.04,8.43-11.69,6.69-18.42,1.04,4.12,2.08,8.24,3.12,12.36,6.03-2.36,11.85-5.25,17.37-8.61-.11-3.82-.22-7.64-.33-11.46,2.11,3.6,4.21,7.2,6.32,10.79,4.91,.15,10.02,.26,14.47-1.81,4.45-2.07,7.97-7.03,6.71-11.77,5.47,4.21,11.42,8.6,18.32,8.85,6.89,.25,14.35-5.88,12.65-12.56,.1,4.67,3.93,8.67,8.36,10.16,4.43,1.49,9.3,.89,13.81-.33,4.27-1.15,9.31-5.17,7.02-8.95,3.58,8.85,15.94,8.85,25.37,7.31,4.16-.68,9.63-3.38,8.19-7.35,3.87,1.8,6.87,5.37,7.98,9.49,12.06-1.66,24.4-1.32,36.35,1.01,.02-18.29-12.67-33.93-25.62-46.85-28.79-28.72-64.26-53.43-104.66-58.09-10.76-1.24-22.16-.91-31.71,4.21-3.51,1.88-6.73,4.39-10.55,5.53-7.28,2.18-16.33-4.78-23.99-5.38-9.82-.76-19.75,.92-29.21,3.41Z"/><ellipse class="cls-12" cx="1002.05" cy="105.42" rx="35.41" ry="50.57"/><ellipse class="cls-12" cx="594.87" cy="170.48" rx="35.41" ry="50.57" transform="translate(-21.11 111.3) rotate(-10.5)"/><circle class="cls-13" cx="710.59" cy="155.99" r="60.68"/><g id="_øje"><circle class="cls-13" cx="877.21" cy="123.34" r="60.68"/></g><path class="cls-4" d="M789.13,198.79c1.82,2.01,5.19,2.57,7.38,.88,2.18-1.69,2.97-4.46,3.41-7.08,.73-4.35,.82-8.8,.3-13.19-.04,0-3.26,4.79-5.74,6.84-4.91,4.05-11.58,5.66-5.34,12.55Z"/><path class="cls-9" d="M812.01,187.67c.69,3.09,2.59,6.08,5.71,8.09,3.12,2.02,6.56,3.37,9.85-.59,.94-1.13,2.59-4.67,1.42-5.87-2.11-2.15-6.59-2.35-9.99-5.03s-8.41-6.51-8.41-6.51c0,0,.62,6.32,1.42,9.9Z"/><path class="cls-9" d="M630.6,160.6c13.6-21.14,38.53-31.69,62.31-39.87,8.53-2.93,17.2-5.76,24.84-10.56s14.27-11.86,16.54-20.59c-3.13,.15-5.84,2.12-8.43,3.89-16.88,11.58-36.67,18.05-54.79,27.57-18.12,9.52-35.55,23.5-40.47,39.56Z"/><path class="cls-9" d="M850.27,81.75c33.92,5,68.5,10,102.32,4.36-8.4,.55-31.8-3.14-36.08-4.24-15.94-4.1-60.22-10.79-66.57-11.85-4.72-.79-9.71-.39-14.14-2.21-2.52-1.04-4.93-2.8-7.65-2.62s-3.52,12.79,22.13,16.57Z"/><path class="cls-3" d="M792.56,160.72c.53,2.78,2.89,12.22-.09,18.24-1.84,3.71-8.96,5.04-10.1,5.95-2.98,2.41-5.54,5.58-5.55,9.35-.01,3.78,3.41,8.04,7.68,8.29"/><path class="cls-7" d="M829.76,195.77c4.87-.16,8.5-3.36,8.58-6.37s-2.48-5.75-5.4-8.1c-2-1.6-10.6-2.13-15.09-6.41-5.76-5.49-7.48-15.08-8.96-18.9"/><path class="cls-1" d="M1005.07,71.75c-6.22,1.99-10.93,7.43-13.23,13.54-2.3,6.11-2.45,12.84-1.75,19.33,4.21-1.88,9.07,2.74,9.01,7.35-.07,4.61-3.39,8.53-6.96,11.44-.82,.67-1.72,1.38-2.01,2.4-.14,.48-.13,.98-.08,1.48,.39,3.31,3.42,6.1,6.76,6.23s6.56-2.44,7.2-5.71"/><path class="cls-1" d="M579.52,145.66c4.5-5.73,14.12-5.35,19.44-.37,5.32,4.98,6.76,13.08,5.42,20.24-1.77-.69-3.83,.46-4.8,2.09s-1.13,3.6-1.24,5.5c-.2,3.36,.24,7.63,3.43,8.7,1.55,.52,3.42,.08,4.73,1.07,.57,.43,.94,1.09,1.22,1.75,1.7,4,.61,9.02-2.6,11.95-3.21,2.93-8.31,3.56-12.14,1.5"/><path class="cls-2" d="M744.03,144.09c6.76,16.67-13.13,28.73-29.8,35.49-16.67,6.76-42.66,12.51-49.42-4.16"/><path class="cls-2" d="M932.59,117.53c0,17.99-33.49,28.57-51.48,28.57-17.99,0-47.57-6.58-47.57-24.57"/><path class="cls-10" d="M813.33,247.6c-7.84,3.33-16.41,4.94-24.92,4.67-.53-.02-1.11-.06-1.51-.42-.38-.34-.49-.88-.58-1.38-1.84-10.33-2.47-20.85-1.88-31.32,9.34,.63,18.56,1.32,28.26-.03,1.94,9.36,2.16,19.06,.63,28.48Z"/><path class="cls-10" d="M850.5,240.87c-.38,.68-1.2,.94-1.95,1.13-8.32,2.25-16.69,4.28-25.11,6.08-.8-6.68-1.72-13.34-2.69-20-.48-3.33-1.22-7.06-.42-10.44,1.35-.34,2.72-.73,4.1-1.18,6.04-1.94,12.55-4.73,19.29-7.83,3.7,9.8,6.04,20.1,6.97,30.53,.05,.57,.08,1.2-.19,1.7Z"/><path class="cls-11" d="M901.58,211.89c-4.99,.94-10.06,1.49-15.15,1.66-.82,0-3.26-14.64-3.5-16.08-.19-1.09-.9-3.37-1.09-5.22,3.55-1.15,7.02-2.08,10.4-2.71,2.34-.44,4.7-.72,7.04-.88,1.36,7.67,2.13,15.45,2.3,23.23Z"/><path class="cls-10" d="M932.26,203.69c-.19,.19-.45,.28-.69,.37-5.13,1.88-10.26,3.76-15.4,5.65-2.36-5.38-4.58-10.83-6.64-16.33-.49-1.3-1.12-3.05-1.53-4.78,7.11,.33,13.91,1.52,19.92,2.63,1.58,3.39,3.06,6.84,4.39,10.33,.27,.7,.5,1.61-.05,2.13Z"/><path class="cls-11" d="M964.38,187.06c.28,2.98,.31,5.98,.1,8.97-2.95,.94-6.04,1.42-9.12,1.4-.43-2.66-.54-5.36-.34-8.05l9.37-2.32Z"/><path class="cls-11" d="M802.67,323.52c0,.06,0,.14,0,.2,0,.21-.21-.19,0-.2Z"/><path class="cls-11" d="M802.61,322.36c-.44-8.4-.9-16.8-1.34-25.21,5.43-.33,10.89,0,16.24,.99,.04,8.57,.68,17.13,1.93,25.61,.02,.13,.03,.26,.04,.39l-16.86-1.78Z"/><path class="cls-10" d="M851.24,297.17c-.31,.02-3.32,17.74-3.72,19.44-.07,.3-.14,.62-.21,.97l-19.65,5.41c-3.34-5.29,.93-15.06,2.34-21.16,.11-.48,.24-1,.63-1.32,.26-.21,.6-.3,.94-.38,6.48-1.48,13.05-2.47,19.68-2.96Z"/><path class="cls-10" d="M868.24,311.46c-.46-5.62-1.69-11.39-2.38-16.88-.13-1-.26-2.03-.74-2.92-3.75,1.6-7.38,3.48-10.84,5.63-.46,.3-.95,.61-1.2,1.1-.25,.52-.19,1.13-.11,1.7,.6,4.22,1.45,11.19,4.4,14.59l10.87-3.23Z"/><path class="cls-10" d="M892.01,303.61c-4.34,1.63-9.54,3.39-15.22,5.2-.69-6.67-1.35-13.33-1.99-20,5.83-1.34,11.52-3.25,16.99-5.68,.2,6.82,.29,13.65,.22,20.48Z"/><path class="cls-10" d="M920.88,279.38l-6.14,6.71c-3.07-2.78-5.83-5.92-8.17-9.33,3.56-3.6,7.94-6.38,12.72-8.07,.54,3.57,1.07,7.12,1.59,10.69Z"/><path class="cls-11" d="M940.6,257.69l-8.34,11.85c-1.99-1.91-3.11-7.13-3.98-9.25-.07-.17-.14-.35-.08-.53,.06-.19,.26-.31,.44-.4,3.72-1.86,7.47-3.67,11.25-5.42,.24,1.25,.47,2.5,.71,3.75Z"/><path class="cls-10" d="M785.88,308.75c-.41,2.45-.64,6.46-1.47,9.67-4.05-.72-8.15-1.2-12.32-1.2-.02-4.82,.05-9.63,.19-14.43,3.93,.91,7.85,1.82,11.76,2.72,.51,.11,1.05,.25,1.43,.61,.66,.64,.57,1.71,.42,2.62Z"/><path class="cls-11" d="M726.79,290.91c-1.52,5.91-3.19,11.78-4.98,17.61-6.49-2.21-10.64-5.85-14.03-10.26,1.12-3.32,3.5-10.07,3.5-10.13,5.09,1.33,10.27,2.26,15.51,2.79Z"/><path class="cls-11" d="M762.27,299.7c-.22,5.54-.58,11.08-1.11,16.6l-16.42-3.21c-.66-4.2-1.86-8.49-2.61-12.39,1.25,.74,2.8,.63,4.24,.49,5.3-.5,10.6-.99,15.9-1.49Z"/><path class="cls-10" d="M750.87,237.95c-5.11,1.58-10.49,2.33-15.83,2.19-1.56-4.53-2.87-9.14-3.94-13.81,4.31-1.12,8.54-2.7,12.78-4.06,1.46-.47,2.92-.89,4.34-1.25,.88,5.65,1.76,11.29,2.64,16.93Z"/><path class="cls-11" d="M711.63,226.75c-.85,4.24-1.7,8.49-2.56,12.72-.07,.35-.16,.74-.44,.97-.33,.28-.82,.24-1.25,.19-6.62-.81-13.11-2.74-19.1-5.68-.44-.21,2.52-9.7,4.69-13.96,6.23,1.88,12.38,4.36,18.66,5.76Z"/><path class="cls-11" d="M687.09,229.51c-.06,.33-.14,.69-.39,.93-.27,.27-.67,.32-1.04,.37-3.05,.39-6.1,.77-9.14,1.16-.04-4.03-.37-8.07-.99-12.05,4.19-.63,8.3-.96,12.75-.14,.28,3.02-.84,8.01-1.19,9.74Z"/><path class="cls-10" d="M870.8,222.93c-.61,.58-1.44,.87-2.24,1.15-3.75,1.28-7.58,2.58-11.54,2.67-.87,.02-1.78-.03-2.53-.47-1.46-.85-1.78-2.81-1.9-4.5-.37-5.11-.58-10.38-.15-15.49,.06-.69,.16-1.29,.29-1.83,4.86-2.28,9.79-4.58,14.69-6.68,1.37,6.53,2.72,13.06,4.09,19.59,.4,1.92,.69,4.21-.71,5.57Z"/><path class="cls-10" d="M692.05,260.24c.02,.38-.3,.68-.58,.92-2.5,2.15-5.04,4.26-7.61,6.33-.37-.27-.74-.54-1.12-.81-1.84-1.31-5.69-4.6-9.9-8.34,1.73-2.76,5.12-6.35,7.01-6.85,.82-.21,1.65,.23,2.36,.68,3.35,2.08,6.5,4.52,9.36,7.25,.23,.22,.48,.49,.49,.82Z"/><path class="cls-11" d="M951.21,223.69c-.78,2.78-1.29,5.76-1.92,8.52-3.32-.76-6.63-1.51-9.95-2.27-.46-.1-1-.27-1.16-.71-.12-.34,.03-.7,.17-1.03,.98-2.26,1.95-4.51,2.94-6.77,.1-.23,.21-.47,.43-.6,.3-.18,.68-.06,1,.05,2.22,.76,6.1,1.35,8.49,2.82Z"/><path class="cls-11" d="M694.96,278.51c1.33-.77,2.66-1.54,3.99-2.31-.73-3.99-3.23-7.63-6.71-9.75-1.08,.76-3.52,2.01-5.47,3.35l8.19,8.7Z"/><path class="cls-10" d="M657.83,229.37c-2.2,.49-4.4,.97-6.6,1.46-.29-1.51-.57-3.01-.86-4.52,1.7-.91,2.97-2.14,5.35-3.11,.7,2.06,1.4,4.11,2.1,6.17Z"/><g><path class="cls-12" d="M709.31,351.38c-1.31-4.17-4.19-8.09-8.32-9.52-1.84-.64-3.83-.76-5.76-.49-7.29,1.01-13.19,8.17-12.78,15.53l-1.2-2.3c-.08,.31-.16,.64-.23,.96-1.54-6.35-3.95-12.49-7.17-18.17-3.45-6.08-8.2-11.92-14.81-14.17-8.72-2.96-22.33,5.03-23.96,14.53-1.13-1.7-2.4-3.3-3.88-4.71-5.26-5-13.08-7.15-20.16-5.55-6.51,1.48-11.45,5.35-13.68,10.63-7.14-1-14.37,3.07-17.83,9.02-2.22-1.66-4.63-2.79-7.12-3.07-4.86-.55-9.75,.73-14.35,2.41l-1.57,.76c-6.06,8.93-6.77,17.44-1.08,23.31,.18,0,.37-.02,.55-.02,0,0,0,0,0-.01,.02,0,.04,0,.06,0,4.87-.15,9.17,.7,13.52,3.21,.3,.17,.63,.36,.95,.54,1.8,1.56,3.85,2.98,5.57,4.43,2.55,2.14,5.44,4.39,8.76,4.22,.02-.04,.05-.09,.07-.13l.11,1.11c.04,.21,.06,.44,.07,.67l.6,6c.3,2.97,.62,6.01,1.92,8.7,1.31,2.68,3.83,4.98,6.8,5.16,4.03,.24,7.25-3.26,9.29-6.74,5.78-9.88,7.13-21.59,6.59-33.15,1.33,1.67,2.4,3.76,3,6.61,2.43,11.68,8.04,22.69,16.05,31.53,3.14,3.46,7.46,6.83,12.01,5.81,5.88-1.32,7.76-8.7,7.97-14.72,.42-11.89-1.25-23.84-4.84-35.17,1.41-.29,2.81-.7,4.18-1.18,1.35,4.16,2.7,8.31,4.05,12.47,1.95,6.01,4.06,12.27,8.62,16.64,4.56,4.36,12.39,6.02,17.15,1.86,3.4-2.97,4.27-7.86,4.51-12.36,.21-3.93,.07-7.88-.39-11.79,.11,.08,.21,.16,.32,.23,.83,.5,1.8,.7,2.76,.86,8.26,1.43,16.82,1.12,24.95-.92,.02-4.37,.03-8.83-1.28-13Z"/><path d="M632.3,388.85c6.42-.99,11.08-1.73,12.76-2.14,.29-.07,1.16-.29,1.81,.16,.62,.43,.74,1.26,.79,1.67,.74,5.71,1.15,8.95-.97,12.14-.44,.66-.99,1.47-2.02,2.09-1.94,1.18-4.06,.78-5.05,.59-2.49-.47-4.1-1.84-4.92-2.56-2.03-1.77-2.92-3.75-3.48-5.02-1.11-2.53-1.38-4.87-1.41-6.51"/><path d="M668.71,373.26c1.39-.54,3.21-1.1,5.4-1.39,2.75-.37,5.09-.18,6.78,.09,2.28,6.39-1.58,12.69-6.33,13.72-4.82,1.05-11.04-3.22-11.47-10.1"/><path d="M593.42,389.6c1.63-1.04,3.2,.5,6.91,.59,3.12,.08,5.68-.92,7.38-1.78,.05,.94,.04,2.52-.4,4.39-1.23,5.13-5.42,10.77-9.99,10.79-.56,0-2.34-.08-3.69-1.32-.28-.26-1.31-1.27-1.67-4.44-.27-2.32-.78-6.8,1.46-8.23Z"/><path class="cls-6" d="M579.52,347.14c5.92,6.78,13.68,13.95,15.74,22.49,2.3,5.77-2.95,12.77-9.06,13"/><path d="M575.15,366.05c1.46-1.04,3.05-1.9,4.71-2.57,3.04-1.23,6.49-1.8,9.61-.78,3.96,1.3,6.88,5.28,6.93,9.44-7.86,3.97-18.4,1.53-23.71-5.5"/><path class="cls-6" d="M598.86,338.32c2.53,.6,4.88,1.95,6.68,3.82,2.56,2.67,3.93,6.29,4.49,9.94s.38,7.37,.2,11.06"/><path class="cls-6" d="M634.62,337.79c2.91,2.46,4.97,5.8,6.43,9.32s2.33,7.25,3.19,10.96"/><path class="cls-6" d="M626.3,371.78c.7,.67,1.77,.83,2.72,.65s1.82-.65,2.67-1.11c1.95-1.06,3.9-2.13,5.85-3.19"/><path class="cls-6" d="M669.07,359.34c-1.84,1.74-4.36,2.74-6.9,2.74,2.57,.04,5.18-.82,6.9-2.74Z"/><path class="cls-6" d="M667.53,365.13c.41,.96,1.85,.63,2.77,.14,1.1-.58,2.19-1.16,3.29-1.73"/><path class="cls-6" d="M630.36,377.28c2.63-.14,5.24-.71,7.69-1.69"/><path class="cls-6" d="M661.22,366.55c1.11,.49,2.43,.47,3.51-.06"/></g><g><path class="cls-12" d="M900.58,353.03c1.2-4.2,3.98-8.2,8.07-9.74,1.82-.69,3.81-.86,5.75-.64,7.32,.82,13.4,7.82,13.19,15.18l1.14-2.33c.09,.31,.18,.63,.26,.96,1.38-6.39,3.62-12.59,6.69-18.36,3.29-6.17,7.88-12.14,14.43-14.56,8.64-3.19,22.45,4.44,24.34,13.89,1.09-1.73,2.31-3.36,3.75-4.81,5.13-5.14,12.89-7.49,20-6.08,6.55,1.3,11.58,5.04,13.96,10.26,7.11-1.18,14.45,2.69,18.06,8.55,2.17-1.72,4.56-2.91,7.04-3.26,4.85-.68,9.77,.47,14.4,2.03l1.59,.72c6.3,8.77,7.23,17.25,1.69,23.27-.18,0-.37,0-.55,0,0,0,0,0,0-.01-.02,0-.04,0-.06,.01-4.87-.02-9.15,.94-13.43,3.56-.3,.18-.62,.37-.94,.56-1.75,1.61-3.77,3.08-5.45,4.57-2.49,2.2-5.32,4.54-8.64,4.45-.03-.04-.05-.09-.08-.13l-.08,1.11c-.03,.22-.05,.44-.05,.67l-.44,6.01c-.22,2.98-.46,6.03-1.69,8.74-1.23,2.72-3.69,5.08-6.67,5.34-4.02,.35-7.33-3.07-9.46-6.49-6.04-9.72-7.7-21.39-7.47-32.96-1.28,1.7-2.3,3.82-2.82,6.69-2.12,11.74-7.43,22.89-15.21,31.94-3.04,3.54-7.27,7.03-11.85,6.12-5.91-1.17-7.99-8.49-8.36-14.5-.73-11.87,.62-23.86,3.91-35.29-1.42-.26-2.83-.62-4.21-1.07-1.24,4.19-2.48,8.38-3.72,12.57-1.79,6.06-3.73,12.38-8.18,16.86-4.45,4.48-12.23,6.34-17.09,2.31-3.47-2.88-4.48-7.74-4.83-12.24-.31-3.92-.27-7.87,.08-11.79-.1,.08-.2,.16-.32,.24-.82,.52-1.79,.75-2.74,.94-8.22,1.65-16.78,1.56-24.96-.26-.14-4.37-.27-8.83,.94-13.03Z"/><path d="M978.55,388.44c-6.45-.82-11.12-1.44-12.81-1.8-.29-.06-1.16-.26-1.8,.21-.61,.45-.71,1.28-.75,1.69-.59,5.73-.92,8.98,1.29,12.11,.46,.65,1.03,1.44,2.07,2.04,1.97,1.12,4.08,.67,5.06,.46,2.47-.53,4.04-1.95,4.85-2.69,1.98-1.83,2.82-3.83,3.34-5.11,1.04-2.56,1.25-4.91,1.24-6.55"/><path d="M941.74,373.82c-1.4-.5-3.24-1.01-5.44-1.25-2.76-.29-5.1-.05-6.78,.27-2.11,6.44,1.91,12.64,6.69,13.55,4.84,.92,10.95-3.51,11.2-10.4"/><path d="M1017.44,388.17c-1.66-1-3.19,.58-6.89,.77-3.11,.16-5.71-.77-7.43-1.59-.02,.94,.02,2.52,.52,4.38,1.36,5.09,5.7,10.63,10.27,10.52,.56-.01,2.34-.14,3.65-1.41,.27-.26,1.27-1.31,1.55-4.48,.21-2.32,.6-6.82-1.68-8.19Z"/><path class="cls-6" d="M1030.22,345.36c-5.74,6.93-13.3,14.31-15.14,22.9-2.14,5.83,3.28,12.68,9.4,12.76"/><path d="M1035.08,364.14c-1.49-1-3.1-1.82-4.78-2.45-3.07-1.15-6.54-1.63-9.63-.53-3.93,1.4-6.74,5.46-6.68,9.62,7.96,3.76,18.44,1.04,23.56-6.12"/><path class="cls-6" d="M1010.64,337.05c-2.51,.67-4.83,2.07-6.57,4-2.48,2.73-3.76,6.39-4.23,10.05-.47,3.66-.19,7.38,.1,11.06"/><path class="cls-6" d="M974.89,337.47c-2.84,2.54-4.82,5.93-6.18,9.49-1.36,3.56-2.14,7.31-2.9,11.04"/><path class="cls-6" d="M984.11,371.22c-.68,.69-1.75,.87-2.7,.72-.96-.15-1.84-.6-2.7-1.04-1.98-1.01-3.95-2.02-5.93-3.03"/><path class="cls-6" d="M941.02,359.92c1.89,1.69,4.43,2.62,6.97,2.56-2.57,.11-5.2-.69-6.97-2.56Z"/><path class="cls-6" d="M942.71,365.67c-.39,.97-1.83,.68-2.77,.21-1.11-.55-2.22-1.1-3.33-1.65"/><path class="cls-6" d="M980.19,376.83c-2.64-.07-5.26-.57-7.74-1.49"/><path class="cls-6" d="M949.05,366.92c-1.09,.52-2.41,.53-3.52,.03"/></g></svg>