<?xml version="1.0" encoding="UTF-8"?><svg id="Layer_1" xmlns="http://www.w3.org/2000/svg" width="694" height="877" viewBox="0 0 694 877"><defs><style>.cls-1{fill:#626167;}.cls-1,.cls-2,.cls-3,.cls-4,.cls-5,.cls-6,.cls-7{stroke-miterlimit:10;stroke-width:1.62px;}.cls-1,.cls-5{stroke:#626168;}.cls-2{opacity:.6;}.cls-2,.cls-4,.cls-6,.cls-7{stroke:#ababab;}.cls-2,.cls-4,.cls-7{fill:#fff;}.cls-3{stroke:#000;stroke-linecap:round;}.cls-3,.cls-6{fill:none;}.cls-4{opacity:.59;}</style></defs><g><path class="cls-1" d="M142.29,584.78c1.22-.75,2.44-1.49,3.66-2.24,5.35,2.89,8.59,8.68,10.1,14.56,1.52,5.89,1.59,12.04,2.25,18.08,1.71,15.67,7.38,30.6,13.01,45.32,2.44,6.38,4.9,12.81,8.64,18.53,7.85,12.01,20.54,19.77,31.99,28.42,11.45,8.65,22.61,19.64,24.83,33.81,2.61,16.62-7.71,32.44-9.67,49.15-.9,7.68-.02,15.47-.56,23.18-1.21,17.14-9.74,33.52-22.69,44.81-12.94,11.3-30.08,17.5-47.26,17.75-16.24,.24-32.84-4.97-44.84-15.92-12-10.94-18.83-27.88-15.99-43.87,2.04-11.52,8.77-22.27,8.12-33.95-.51-9.16-5.94-17.9-13.93-22.41-5.7-3.22-13.59-5.7-14.23-12.21,6.84,2.6,14.09-3.02,18.09-9.15,8.11-12.42,10.03-28.04,17.81-40.66,7.75-12.58,20.99-21.67,26.15-35.51,5.61-15.03,.4-32.29,5.16-47.61,1.52-4.9,4.04-9.48,5.04-14.51s.1-10.94-3.7-14.36c-.28-.25-.56-.51-1.97-1.23Z"/><path class="cls-5" d="M145.54,583.28c-3.34-.37-6.29,2.42-7.65,5.49-1.36,3.07-1.66,6.51-2.75,9.68-2.84,8.23-10.61,13.74-14.83,21.35-6.21,11.19-4.13,25.67-10.77,36.6-5.89,9.71-17.31,14.49-25.24,22.62-6.91,7.09-11.02,16.85-11.26,26.76-.12,4.86,.65,9.68,1.23,14.5,1.16,9.66,1.56,19.41,1.18,29.13,2.24-1.83,5.57-.81,8.39-1.41,2.44-.53,4.43-2.28,6.11-4.13,10.63-11.72,12.81-28.62,19.67-42.88,4.01-8.32,10.49-13.65,16.42-20.73,5.65-6.73,10.96-15.67,13.11-24.2,2.71-10.75-1.47-22.36,1.31-33.09,1.31-5.03,4.07-9.56,5.69-14.5,2.61-7.96,2.04-16.91-.63-25.19Z"/><path class="cls-3" d="M155.19,672.34c2.68,8.84,5.47,17.89,11.15,25.18,5.31,6.81,12.8,11.6,18.58,18.02,9.64,10.69,13.88,25.06,17.71,38.93"/><path class="cls-3" d="M108.38,754.09c6.88-2.01,13.84-4.73,18.79-9.91s7.34-13.39,3.99-19.72"/><path class="cls-3" d="M120.16,762.47c9.17-.92,17.75-6.5,22.3-14.52"/><path class="cls-3" d="M131.29,798.89c.1,6.77-1.1,13.48-1.81,20.22-.7,6.74-.89,13.68,1.17,20.13,2.06,6.45,6.7,12.39,13.13,14.5,7.17,2.36,15.02-.33,21.67-3.92"/><path class="cls-3" d="M171.17,749.43c4.71,13.44,4.78,27.97,5.89,42.17,.43,5.55,1.09,11.27,3.84,16.11,2.75,4.84,8.13,8.6,13.64,7.8"/></g><path class="cls-7" d="M158.88,237.03c21.13-16.23,42.89-28.4,64.26-35.94-27.74,2.17-56.83,9.13-85.94,26.05l21.68,9.89Z"/><path class="cls-2" d="M313.19,338.38c-5.94-22.77-5.73-46.64-5.03-70.16,.82-27.65,2.34-55.72,11.3-81.9,3.71-10.84,8.65-21.22,13.59-31.56,12.54-26.3,25.07-52.61,37.61-78.91,11.87-24.91,23.79-49.9,38.63-73.16,.39,14.84,.87,30.13,6.95,43.67,2.71,6.03,6.47,11.57,8.69,17.8,4.42,12.42,2.23,26.07,2.59,39.25,.42,15.39,4.39,30.5,5.09,45.89,.68,15.15-1.82,30.25-4.31,45.21-1.82,10.89-3.63,21.79-5.45,32.68-3.95,23.68-7.9,47.37-11.84,71.05-.55,3.3-1.14,6.7-2.94,9.52-1.72,2.7-4.41,4.61-6.6,6.95-3.87,4.12-6.14,9.44-8.82,14.42-10.56,19.61-28.8,34.95-49.93,42.01"/><path class="cls-2" d="M322.72,363.48c6.47-25.4,13.24-51.45,28.49-72.77,3.37-4.72,7.13-9.15,10.45-13.91,3.53-5.04,6.56-10.42,9.68-15.72,13.21-22.39,28.32-43.6,43.4-64.78,7.35-10.32,14.74-20.69,23.58-29.76,13.44-13.79,29.88-24.24,44.51-36.75,10.71-9.16,20.49-19.45,31.91-27.71,12.32-8.92,71.67-46.89,85.51-53.18,17.69-8.04,64.69-2.96,87.12,1.01-11.59,.92-48.8,5.02-64.32,21.63-18.16,19.44-18.73,37.11-20.64,42.72-14.76,43.48-31.61,59.14-52.38,100.09-11.73,23.12-28.43,43.32-45.79,62.56-3.44,3.81-6.92,7.6-9.8,11.84-3.49,5.14-6.04,10.84-9.19,16.2-10.56,17.95-27.34,31.22-43.74,44.06-19.09,14.95-40.07,30.6-64.31,30.95-16.38,.24-34.03-6.44-54.48-16.49Z"/><path class="cls-4" d="M340.11,384.79c15.66-13.47,34.41-22.74,52.94-31.86,6.54-3.22,13.14-6.46,20.19-8.3,8.13-2.12,16.63-2.31,25.03-2.49,12.56-.27,25.15-.54,37.64,.85,39.84,4.44,138.41,5.23,164.04,15.74-10.16-1.6-35.65,.61-48.32,7.33-14.12,7.49-23.07,20.45-28.35,24.64-10.76,8.54-21.9,17.29-35.13,20.96-6.73,1.87-13.83,2.34-20.75,1.39-7.35-1.01-14.59-3.61-21.98-2.99-17.72,1.48-31.48,20.9-49.1,18.48-7.5-1.03-13.83-5.94-20.94-8.53-8.83-3.22-18.59-2.76-27.64-5.3-7.41-2.08-14.12-6.09-20.71-10.06-9.43-5.67-18.86-11.34-26.9-19.87Z"/><path class="cls-2" d="M350.76,385.5c9.27-1.98,18.86-1.67,28.34-1.36,17.01,.57,34.99,1.43,49.19,10.81,6.75,4.46,12.23,10.61,18.78,15.35,4.78,3.46,10.08,6.13,15.43,8.63,20.33,9.54,41.76,17,60.69,29.08,5.93,3.78,11.58,8,17.76,11.36,10.53,5.72,44.38,25.55,44.38,32.46-7.01-3.81-4.94-4.63-14.92-7.91-10.91-3.59-31,1.56-33.06,2.83-26.22,16.19-35.18-12.58-64.88-4.36-3.65,1.01-7.28,2.37-11.07,2.44-4.11,.08-8.11-1.37-11.78-3.22-16.04-8.08-26.96-23.41-40.66-35.01-6.65-5.63-13.98-10.4-21.29-15.15-15.73-10.23-31.47-20.45-36.89-45.94Z"/><path class="cls-2" d="M334.54,376.36c25.85-25.96,57.54-46.07,92.04-58.41,7.1-2.54,14.32-4.76,21.21-7.81,7.56-3.35,14.73-7.7,22.68-9.95,9.78-2.76,20.17-2.16,30.22-3.73,23.54-3.67,43.7-18.96,59.97-36.37,6.9-7.38,13.82-15.58,23.46-18.61-4.48,1.91-7.57,6.47-8.71,11.2-.5,2.08-1.28,9.93-1.22,12.06,.12,4.03-.82,10.45-1.89,14.33-9.09,32.88-29.24,52.71-55.47,74.52-5.53,4.6-11.38,8.86-17.71,12.28-7.87,4.26-16.39,7.18-24.86,10.08-13.62,4.66-27.23,9.31-40.85,13.97-3.75,1.28-7.65,2.58-11.58,2.13-3.59-.41-6.9-2.26-10.49-2.68-4.54-.53-8.99,1.25-13.26,2.87-18.32,6.94-37.53,11.52-57.01,13.59-3.98,.42-9.15,.03-6.53-29.49Z"/><path class="cls-7" d="M486.83,694.73c-7.34-24.66,8.66-54.29-7.23-76.94-6.72-4.72-14.56,1.6-21.48,2.67-2.62,.03-4.74,1.37-6.29,3.45-29.14,35.83-62.88,26.74-82.02,47.31,6.55-15.63-.28-34.11,4.88-50.26,9.73-28.39,8.15-59.92,12.37-89.36,12.36-21.87,13.42-46.44,1.52-68.71-12.64-30.31-25.28-60.63-37.92-90.94-3.87-9.28-8.03-18.95-15.83-25.29-22.31-13.05-50.14-24.01-75.93-20.64-56.19,19.06-39.71-18.16-65.58,24.52,7.31,8.85,21.69,9.05,31.03,3.35-2.01,13.57-.23,28.62-9.04,40.1-13.48,21.26-24.72,43.94-33.46,67.55-1.46,3.94-3.82,8.64-8.02,8.65-3.43,.01-5.85-3.19-8.18-5.71-16.59-14.97-43.18-15.5-58.69-33.48-3.47-8.21-13.4-8.8-16.82-16.08-6.33-13.88-14.04-27.33-18.26-42.05-1.79-6.54-3.01-13.82-8.08-18.32-10.54-7.59-26.65-4.67-38.98-3.65-7.73,5.41-15.43,13.66-17.41,22.92,6.21-3.72,10.79-16.94,19.7-17.45,6.93-2.65,6.77,.92,14.03-.62,22.4-.75,18.61,9.76,21.8,26.56-6.54-5.51-13.62-11.64-21.81-14.26-4.53,1.84-5.58,8.45-7.53,12.56-.43,2.35-2.44,2.98-4.56,2.26-18.68-.04-27.08,25.51-27.76,41.24,4.64-11.45,14.96-34.04,28.69-34.32-3.65,9.26-6.92,22.02,1.65,29.48-1.99-9.77-.68-19.33,5.63-27.43,8.23,1.87,17.5,3.56,21.61,11.72,4.51,7.36,15.28,13.51,12.85,23.37-5.03,10.35-13.81,23.06-26.62,22.65,14.82,10.53,25.54-11.72,39.61-7.93,0,0,27.18,16.95,40.91,25.76,14.93,6.77,25.26,24.21,41.25,27.21,11.97-1.6,7.96,7.17,12.22,4.64,18.56-14.03,26.68-38.62,41.91-56.31,10.66-17.21,10.81-41.03,29.97-52.46,12.95,4.14,2.67,120.02-2.17,134.36-7.61,1.88-11.82,9.79-15.29,16.82-13.6,23.84-24.98,52.34-46.52,69.87-12.06,4.99-25.85-.03-38.49,.08-22.77,.2-31.16,31.06-12.8,43.86-9.42-16.15,2.12-44.63,22.85-35.56,1.11,9.73-6.17,16.43-12.82,22.15-7.09,10.88-10.54,34.21,1.23,42.32-2.21-10.69-1.85-23.53,4.58-32.69,8.37-2.28,12.35-12.97,18.6-11.71,4.02,1.08,4.73,6.9,2.54,10.44-10.09,9.07-22.29,19.75-17.2,35.15,4.54-2.66,5.92-8.42,8.34-13.1,5.69-10.98,17.94-16.67,26.68-25.42,17.42-20.04,30.02-43.92,46.7-64.56,4.39-5.02,9.49-9.36,14.27-14.02,4.76-3.48,32.65-48.49,32.65-48.49,0,0-4.15-.55-5.36-.5,2.7-12.46,4.09-46.24,8.1-73.19,2.04-13.72-.94-27.48-.07-33.35,6.56,11.48,10.64,24.92,19.48,34.86,7.98,6.32,18.73,10.38,19.04,22.02,.74,5.64,2.62,11.28,2.58,16.96-.6,3.64-4.54,7.06-3.56,10.31-24.28,35.32-47.38,73.08-62.39,113.3-6.16,7.91-11.13,19.31-5.78,27.67,1.23,1.93,2.2,4.91,4.65,6.44,2.88-1.43,10.96,3.98,12.85,9.79,3.37,8.81,12.06,18.39,5.68,27.76-3.77,12.83-38.14,58.04-22.91,65.14,4.47-22.91,39.44-40.35,46.47-62.2,.35-5.53-3.79-10.27-5.24-15.63-.96-12.77,.73-25.76-7.81-36.85-10.61-16.05,24.57-38.95,30.92-54.29,8.89-14.55,13.42-32.09,25.66-43.96,4.91,39.78-19,130.23,3.95,164.18,1.53,2.26,5.64,6.5,8.9,6.84,2.91-2.55,6.79-5.26,12.43-6.78,23.11-6.25,61.76-32.78,89.73-48.98,22.43,84.36-16.13,66.04,5.93,100.12,6.06-6.21,2.56-18.48,9.31-25.39,10.53-6.27,11.5-18.31,10.18-29.55ZM63.38,392.35s-7.87-2.48-8.94-2.69c-3.46-.67-14.83-3.6-14.83-3.6,0,0,2.7-3.81,3.19-5.91,.08-.34,.55-2.01,.55-2.01,0,0,.81,.07,.9,.07,1.34,.1,3.91,2.31,6.56,3.8,4.18,2.36,8.02,5.82,8.2,6.03,1.75,2.02,4.36,4.3,4.36,4.3Z"/><path class="cls-7" d="M87.36,275.96c7.78-24.37,34.73-47.99,63.94-55.64,7.68-2.01,21.76-1.86,37.09-.77,30.51,2.17,66.01,8.06,66.01,8.06,0,0-16.92,10.59-22.3,26.77-.09,.28-5.67,16.25-5.4,16.32,4.38,1.18,57.94-32.93,57.94-32.93,0,0-27.02,38.34-47.12,62.5-8.62,10.36-18.94,12.49-20.42,17.1-13.89,43.51-54.19,69.5-90.02,58.07-35.83-11.44-53.62-55.98-39.73-99.49Z"/><circle class="cls-5" cx="169.65" cy="305.76" r="18.24"/><circle class="cls-5" cx="103.98" cy="305.76" r="18.24"/><path class="cls-5" d="M93.79,331.84c.7,2.47,2.73,4.31,4.66,6,2.21,1.93,4.44,3.88,7.01,5.31,1.68,.93,7.17,8.57,6.18,6.92-1.12-1.87-3.65-6-2.36-6.89,1.19-.82,6.84,6.57,8.34,9.13,.1,.17-1.64-4.11-1.55-6.19,.07-1.46,1.85-.87,1.92-.89,1.07-.29,5.29,9.8,5.04,8.72-.27-1.18-2.91-7.8-1.29-9.83,1.5-1.88,10.04-.01,11.83-.55,.62-.18,1.26,.47,3.19,2.89,2.17,2.72,3.21,9.29,3.09,7.85-.14-1.68-.17-5.87,.84-8.34,1.15-2.8,.13-2.07,2.04-2.07,1.09,0,6.76-.44,7.96-.25,1.26,.2,4.08,7.02,3.81,5.77-.32-1.49-.75-4.26,.92-5.49,2.17-1.61,7.85-1.15,9.71-2,1.58-.73,3.04-1.76,4.72-2.2,.98-.25,4.76-1.16,5.7,.23,1.42,2.11,1.35,4.98,1.46,6.5,.06,.86,.86-5.5,2.26-8.64,.98-2.19,3.5-2.52,4.05-2.89,3.95-2.64,6.29-3.26,10.24-5.9,2.23-1.49,4.67-3.32,4.95-5.99,.09-.88-.07-1.78,.03-2.66,.38-3.39,2.79-6.11,4.07-10.51,.85,8.23-2.22,18.14-7.7,24.33-.66,.74-.97,1.47-1.85,1.92-.87,.45-3.07,1.83-3.97,2.21-1.01,.43-3.17-.76-3.44-2.47-.18-1.14,.96,2.84,0,4.93-.77,1.71-2.01,3.26-2.62,3.97-1.5,1.75-7.01,5.83-9.78,4.89-2.1-.71-1.77-6.73-1.9-4.96-.21,3.03-1.7,6.2-3.15,6.33-.71,.07-2.21-6.62-2.13-5.92,1.2,9.57-9.64,6.31-14.27,7.55-4.09,1.09-7.92,3.18-12.12,3.68-1.08,.13-5.28,1.21-7.12-.45-1.57-1.42-1.91-4.1-2.15-5.08-.12-.51,.14,5.85-.57,4.63-1.38-2.37-1.87-9.18-2.04-8.18-.47,2.75,.21,5.75-2.15,7.66-2.26,1.84-7.62-.26-10-1.05-6.47-2.16-12.42-6.55-16.63-11.73-.9-.74-1.64-1.69-2.13-2.75-.33-.71-.55-1.47-.9-2.18-.45-.92-1.11-1.74-1.54-2.67-.44-.93-.63-2.07-.67-2.7Z"/><path class="cls-6" d="M253.45,393.36c-.78-5.38-1.56-10.76-2.35-16.14-.72-4.95-1.41-10.17,.43-14.82,1.87-4.73,6.05-8.09,10.06-11.22"/><path class="cls-6" d="M286.56,414.76c-.51-3.54,.62-7.09,1.88-10.44,2.62-6.98,5.84-13.73,9.61-20.16"/><path class="cls-6" d="M330.79,431.76c5.84-6.16,9.57-14.3,10.43-22.75"/><path class="cls-6" d="M343.44,439.48c4.14-4.03,7.28-9.08,9.06-14.58,.93-2.86,1.48-6.01,.46-8.83"/></svg>